<svg width="20" height="86" viewBox="0 0 20 86" fill="none" xmlns="http://www.w3.org/2000/svg">
<path d="M10 20C15.5228 20 20 15.5228 20 10C20 4.47715 15.5228 0 10 0C4.47715 0 0 4.47715 0 10C0 15.5228 4.47715 20 10 20Z" fill="black"/>
<path d="M10 52C15.5228 52 20 47.5228 20 42C20 36.4772 15.5228 32 10 32C4.47715 32 0 36.4772 0 42C0 47.5228 4.47715 52 10 52Z" fill="black"/>
<path d="M10 86C15.5228 86 20 81.5228 20 76C20 70.4772 15.5228 66 10 66C4.47715 66 0 70.4772 0 76C0 81.5228 4.47715 86 10 86Z" fill="black"/>
</svg>
